<svg xmlns="http://www.w3.org/2000/svg" viewBox="0 0 800 4240" width="800" height="4240">
<style>
text{font-family:'Segoe UI',system-ui,-apple-system,'DejaVu Sans',sans-serif;fill:#1f2933}
.ttl{font-size:13px;font-weight:600} .hd{font-size:12px} .lg{font-size:10px;fill:#6b7280} .ax{font-size:10px;fill:#4b5563} .lb{font-size:9px} .lbo{font-size:9px;fill:#9aa3ad}
.grid{stroke:#e5e7eb;stroke-width:1} .axis{stroke:#9aa3ad;stroke-width:1}
.pt{fill:#1f2933} .pto{fill:none;stroke:#9aa3ad;stroke-width:1.2}
.front{fill:none;stroke:#1f2933;stroke-width:1.2;opacity:0.55}
</style>
<rect x="0" y="0" width="800" height="4240" fill="#ffffff"/>
<text class="hd" x="58" y="20">score against cost, one panel per campaign and project</text>
<text class="lg" x="58" y="36">filled = live arm, hollow = *_outdated; the line is the Pareto front of the live arms</text>
<text class="ttl" x="58" y="66">p01_python_small  &#8212;  .llm_config.e02_claude_sonnet_5</text>
<rect x="58" y="80" width="720" height="360" fill="#fbfbfc" stroke="#e5e7eb"/>
<line class="grid" x1="58" y1="440" x2="778" y2="440"/>
<text class="ax" x="50" y="443" text-anchor="end">0.90</text>
<line class="grid" x1="58" y1="368" x2="778" y2="368"/>
<text class="ax" x="50" y="371" text-anchor="end">0.92</text>
<line class="grid" x1="58" y1="296" x2="778" y2="296"/>
<text class="ax" x="50" y="299" text-anchor="end">0.94</text>
<line class="grid" x1="58" y1="224" x2="778" y2="224"/>
<text class="ax" x="50" y="227" text-anchor="end">0.96</text>
<line class="grid" x1="58" y1="152" x2="778" y2="152"/>
<text class="ax" x="50" y="155" text-anchor="end">0.98</text>
<line class="grid" x1="58" y1="80" x2="778" y2="80"/>
<text class="ax" x="50" y="83" text-anchor="end">1.00</text>
<line class="grid" x1="58" y1="80" x2="58" y2="440"/>
<text class="ax" x="58" y="455" text-anchor="middle">0.0</text>
<line class="grid" x1="778" y1="80" x2="778" y2="440"/>
<text class="ax" x="778" y="455" text-anchor="middle">0.5</text>
<line class="axis" x1="58" y1="440" x2="778" y2="440"/>
<line class="axis" x1="58" y1="80" x2="58" y2="440"/>
<text class="ax" x="418" y="473" text-anchor="middle">cost (USD)</text>
<text class="ax" x="20" y="260" text-anchor="middle" transform="rotate(-90 20 260)">score</text>
<circle class="pt" cx="170.85" cy="414.8" r="3.2"/>
<text class="lb" x="175.85" y="410.8">00</text>
<circle class="pt" cx="172.8" cy="425.6" r="3.2"/>
<text class="lb" x="177.8" y="421.6">00</text>
<text class="ttl" x="58" y="532">p04_python_xlarge  &#8212;  .llm_config.e03_claude_opus_5</text>
<rect x="58" y="546" width="720" height="360" fill="#fbfbfc" stroke="#e5e7eb"/>
<line class="grid" x1="58" y1="906" x2="778" y2="906"/>
<text class="ax" x="50" y="909" text-anchor="end">0.80</text>
<line class="grid" x1="58" y1="870" x2="778" y2="870"/>
<text class="ax" x="50" y="873" text-anchor="end">0.82</text>
<line class="grid" x1="58" y1="834" x2="778" y2="834"/>
<text class="ax" x="50" y="837" text-anchor="end">0.84</text>
<line class="grid" x1="58" y1="798" x2="778" y2="798"/>
<text class="ax" x="50" y="801" text-anchor="end">0.86</text>
<line class="grid" x1="58" y1="762" x2="778" y2="762"/>
<text class="ax" x="50" y="765" text-anchor="end">0.88</text>
<line class="grid" x1="58" y1="726" x2="778" y2="726"/>
<text class="ax" x="50" y="729" text-anchor="end">0.90</text>
<line class="grid" x1="58" y1="690" x2="778" y2="690"/>
<text class="ax" x="50" y="693" text-anchor="end">0.92</text>
<line class="grid" x1="58" y1="654" x2="778" y2="654"/>
<text class="ax" x="50" y="657" text-anchor="end">0.94</text>
<line class="grid" x1="58" y1="618" x2="778" y2="618"/>
<text class="ax" x="50" y="621" text-anchor="end">0.96</text>
<line class="grid" x1="58" y1="582" x2="778" y2="582"/>
<text class="ax" x="50" y="585" text-anchor="end">0.98</text>
<line class="grid" x1="58" y1="546" x2="778" y2="546"/>
<text class="ax" x="50" y="549" text-anchor="end">1.00</text>
<line class="grid" x1="58" y1="546" x2="58" y2="906"/>
<text class="ax" x="58" y="921" text-anchor="middle">0.0</text>
<line class="grid" x1="138" y1="546" x2="138" y2="906"/>
<text class="ax" x="138" y="921" text-anchor="middle">0.5</text>
<line class="grid" x1="218" y1="546" x2="218" y2="906"/>
<text class="ax" x="218" y="921" text-anchor="middle">1.0</text>
<line class="grid" x1="298" y1="546" x2="298" y2="906"/>
<text class="ax" x="298" y="921" text-anchor="middle">1.5</text>
<line class="grid" x1="378" y1="546" x2="378" y2="906"/>
<text class="ax" x="378" y="921" text-anchor="middle">2.0</text>
<line class="grid" x1="458" y1="546" x2="458" y2="906"/>
<text class="ax" x="458" y="921" text-anchor="middle">2.5</text>
<line class="grid" x1="538" y1="546" x2="538" y2="906"/>
<text class="ax" x="538" y="921" text-anchor="middle">3.0</text>
<line class="grid" x1="618" y1="546" x2="618" y2="906"/>
<text class="ax" x="618" y="921" text-anchor="middle">3.5</text>
<line class="grid" x1="698" y1="546" x2="698" y2="906"/>
<text class="ax" x="698" y="921" text-anchor="middle">4.0</text>
<line class="grid" x1="778" y1="546" x2="778" y2="906"/>
<text class="ax" x="778" y="921" text-anchor="middle">4.5</text>
<line class="axis" x1="58" y1="906" x2="778" y2="906"/>
<line class="axis" x1="58" y1="546" x2="58" y2="906"/>
<text class="ax" x="418" y="939" text-anchor="middle">cost (USD)</text>
<text class="ax" x="20" y="726" text-anchor="middle" transform="rotate(-90 20 726)">score</text>
<polyline class="front" points="183.31,646.8 189.5,625.2 197.68,567.6 320.35,556.8"/>
<circle class="pt" cx="183.31" cy="646.8" r="3.2"/>
<text class="lb" x="188.31" y="642.8">18</text>
<circle class="pt" cx="183.52" cy="715.2" r="3.2"/>
<text class="lb" x="188.52" y="711.2">25</text>
<circle class="pt" cx="183.79" cy="646.8" r="3.2"/>
<text class="lb" x="167.99" y="642.8">37</text>
<circle class="pt" cx="184.91" cy="670.2" r="3.2"/>
<text class="lb" x="189.91" y="666.2">31</text>
<circle class="pt" cx="189.5" cy="625.2" r="3.2"/>
<text class="lb" x="194.5" y="621.2">19</text>
<circle class="pt" cx="190.34" cy="646.8" r="3.2"/>
<text class="lb" x="209.14" y="642.8">32</text>
<circle class="pt" cx="191.27" cy="715.2" r="3.2"/>
<text class="lb" x="175.47" y="711.2">12</text>
<circle class="pt" cx="194.24" cy="657.6" r="3.2"/>
<text class="lb" x="199.24" y="653.6">10</text>
<circle class="pt" cx="194.71" cy="726" r="3.2"/>
<text class="lb" x="199.71" y="722">47</text>
<circle class="pt" cx="197.68" cy="567.6" r="3.2"/>
<text class="lb" x="202.68" y="563.6">34</text>
<circle class="pt" cx="198.67" cy="670.2" r="3.2"/>
<text class="lb" x="203.67" y="666.2">04</text>
<circle class="pt" cx="199.05" cy="726" r="3.2"/>
<text class="lb" x="183.25" y="722">14</text>
<circle class="pt" cx="204.8" cy="646.8" r="3.2"/>
<text class="lb" x="223.6" y="642.8">36</text>
<circle class="pt" cx="206.77" cy="580.2" r="3.2"/>
<text class="lb" x="211.77" y="576.2">15</text>
<circle class="pt" cx="208.26" cy="715.2" r="3.2"/>
<text class="lb" x="213.26" y="711.2">16</text>
<circle class="pt" cx="211.5" cy="646.8" r="3.2"/>
<text class="lb" x="216.5" y="655.8">11</text>
<circle class="pt" cx="218.74" cy="715.2" r="3.2"/>
<text class="lb" x="237.54" y="711.2">23</text>
<circle class="pt" cx="222.05" cy="657.6" r="3.2"/>
<text class="lb" x="240.85" y="653.6">01</text>
<circle class="pt" cx="222.22" cy="715.2" r="3.2"/>
<text class="lb" x="227.22" y="724.2">20</text>
<circle class="pt" cx="223.14" cy="636" r="3.2"/>
<text class="lb" x="228.14" y="632">33</text>
<circle class="pt" cx="224.4" cy="612.6" r="3.2"/>
<text class="lb" x="229.4" y="608.6">24</text>
<circle class="pt" cx="226.16" cy="657.6" r="3.2"/>
<text class="lb" x="231.16" y="666.6">27</text>
<circle class="pt" cx="233.9" cy="591" r="3.2"/>
<text class="lb" x="238.9" y="587">28</text>
<circle class="pt" cx="237.9" cy="749.4" r="3.2"/>
<text class="lb" x="242.9" y="745.4">22</text>
<circle class="pt" cx="241.1" cy="646.8" r="3.2"/>
<text class="lb" x="246.1" y="642.8">02</text>
<circle class="pt" cx="241.92" cy="567.6" r="3.2"/>
<text class="lb" x="246.92" y="563.6">29</text>
<circle class="pt" cx="243.56" cy="681" r="3.2"/>
<text class="lb" x="248.56" y="677">05</text>
<circle class="pt" cx="244.15" cy="704.4" r="3.2"/>
<text class="lb" x="249.15" y="700.4">00</text>
<circle class="pt" cx="265.23" cy="704.4" r="3.2"/>
<text class="lb" x="270.23" y="700.4">17</text>
<circle class="pt" cx="289.31" cy="736.8" r="3.2"/>
<text class="lb" x="294.31" y="732.8">21</text>
<circle class="pt" cx="293.34" cy="670.2" r="3.2"/>
<text class="lb" x="298.34" y="666.2">38</text>
<circle class="pt" cx="303.98" cy="636" r="3.2"/>
<text class="lb" x="308.98" y="632">06</text>
<circle class="pt" cx="320.35" cy="556.8" r="3.2"/>
<text class="lb" x="325.35" y="565.8">26</text>
<circle class="pt" cx="336.38" cy="726" r="3.2"/>
<text class="lb" x="341.38" y="722">30</text>
<circle class="pt" cx="350.41" cy="805.2" r="3.2"/>
<text class="lb" x="355.41" y="801.2">03</text>
<circle class="pt" cx="365.36" cy="691.8" r="3.2"/>
<text class="lb" x="370.36" y="687.8">09</text>
<circle class="pt" cx="368.7" cy="792.6" r="3.2"/>
<text class="lb" x="373.7" y="788.6">08</text>
<circle class="pt" cx="370.54" cy="681" r="3.2"/>
<text class="lb" x="375.54" y="677">13</text>
<circle class="pt" cx="385.69" cy="681" r="3.2"/>
<text class="lb" x="390.69" y="677">35</text>
<circle class="pt" cx="400.76" cy="625.2" r="3.2"/>
<text class="lb" x="405.76" y="621.2">07</text>
<circle class="pto" cx="543.87" cy="612.6" r="3.2"/>
<text class="lbo" x="548.87" y="608.6">42</text>
<circle class="pt" cx="567.93" cy="625.2" r="3.2"/>
<text class="lb" x="572.93" y="621.2">45</text>
<circle class="pto" cx="577.15" cy="681" r="3.2"/>
<text class="lbo" x="582.15" y="677">39</text>
<circle class="pto" cx="619.31" cy="567.6" r="3.2"/>
<text class="lbo" x="624.31" y="563.6">40</text>
<circle class="pto" cx="650.91" cy="546" r="3.2"/>
<text class="lbo" x="655.91" y="555">43</text>
<circle class="pto" cx="658.04" cy="580.2" r="3.2"/>
<text class="lbo" x="663.04" y="576.2">41</text>
<circle class="pt" cx="692.54" cy="681" r="3.2"/>
<text class="lb" x="697.54" y="677">46</text>
<circle class="pt" cx="703.01" cy="591" r="3.2"/>
<text class="lb" x="708.01" y="587">44</text>
<text class="ttl" x="58" y="998">p05_python_refactor_large  &#8212;  .llm_config.e03_claude_opus_5</text>
<rect x="58" y="1012" width="720" height="360" fill="#fbfbfc" stroke="#e5e7eb"/>
<line class="grid" x1="58" y1="1372" x2="778" y2="1372"/>
<text class="ax" x="50" y="1375" text-anchor="end">0.90</text>
<line class="grid" x1="58" y1="1300" x2="778" y2="1300"/>
<text class="ax" x="50" y="1303" text-anchor="end">0.92</text>
<line class="grid" x1="58" y1="1228" x2="778" y2="1228"/>
<text class="ax" x="50" y="1231" text-anchor="end">0.94</text>
<line class="grid" x1="58" y1="1156" x2="778" y2="1156"/>
<text class="ax" x="50" y="1159" text-anchor="end">0.96</text>
<line class="grid" x1="58" y1="1084" x2="778" y2="1084"/>
<text class="ax" x="50" y="1087" text-anchor="end">0.98</text>
<line class="grid" x1="58" y1="1012" x2="778" y2="1012"/>
<text class="ax" x="50" y="1015" text-anchor="end">1.00</text>
<line class="grid" x1="58" y1="1012" x2="58" y2="1372"/>
<text class="ax" x="58" y="1387" text-anchor="middle">0.0</text>
<line class="grid" x1="148" y1="1012" x2="148" y2="1372"/>
<text class="ax" x="148" y="1387" text-anchor="middle">0.5</text>
<line class="grid" x1="238" y1="1012" x2="238" y2="1372"/>
<text class="ax" x="238" y="1387" text-anchor="middle">1.0</text>
<line class="grid" x1="328" y1="1012" x2="328" y2="1372"/>
<text class="ax" x="328" y="1387" text-anchor="middle">1.5</text>
<line class="grid" x1="418" y1="1012" x2="418" y2="1372"/>
<text class="ax" x="418" y="1387" text-anchor="middle">2.0</text>
<line class="grid" x1="508" y1="1012" x2="508" y2="1372"/>
<text class="ax" x="508" y="1387" text-anchor="middle">2.5</text>
<line class="grid" x1="598" y1="1012" x2="598" y2="1372"/>
<text class="ax" x="598" y="1387" text-anchor="middle">3.0</text>
<line class="grid" x1="688" y1="1012" x2="688" y2="1372"/>
<text class="ax" x="688" y="1387" text-anchor="middle">3.5</text>
<line class="grid" x1="778" y1="1012" x2="778" y2="1372"/>
<text class="ax" x="778" y="1387" text-anchor="middle">4.0</text>
<line class="axis" x1="58" y1="1372" x2="778" y2="1372"/>
<line class="axis" x1="58" y1="1012" x2="58" y2="1372"/>
<text class="ax" x="418" y="1405" text-anchor="middle">cost (USD)</text>
<text class="ax" x="20" y="1192" text-anchor="middle" transform="rotate(-90 20 1192)">score</text>
<circle class="pt" cx="91.61" cy="1012" r="3.2"/>
<text class="lb" x="96.61" y="1021">00</text>
<circle class="pt" cx="92.09" cy="1012" r="3.2"/>
<text class="lb" x="76.29" y="1021">34</text>
<circle class="pt" cx="92.71" cy="1012" r="3.2"/>
<text class="lb" x="111.51" y="1021">36</text>
<circle class="pt" cx="93.59" cy="1012" r="3.2"/>
<text class="lb" x="63.99" y="1021">38</text>
<circle class="pt" cx="94.16" cy="1012" r="3.2"/>
<text class="lb" x="99.16" y="1030">32</text>
<circle class="pt" cx="94.93" cy="1012" r="3.2"/>
<text class="lb" x="79.13" y="1030">18</text>
<circle class="pt" cx="95.53" cy="1012" r="3.2"/>
<text class="lb" x="114.33" y="1030">11</text>
<circle class="pt" cx="95.74" cy="1012" r="3.2"/>
<text class="lb" x="66.14" y="1030">19</text>
<circle class="pt" cx="95.87" cy="1012" r="3.2"/>
<text class="lb" x="100.87" y="1039">01</text>
<circle class="pt" cx="97.07" cy="1044.4" r="3.2"/>
<text class="lb" x="81.27" y="1040.4">14</text>
<circle class="pt" cx="97.32" cy="1044.4" r="3.2"/>
<text class="lb" x="116.12" y="1040.4">25</text>
<circle class="pt" cx="97.51" cy="1224.4" r="3.2"/>
<text class="lb" x="102.51" y="1220.4">47</text>
<circle class="pt" cx="97.52" cy="1012" r="3.2"/>
<text class="lb" x="67.92" y="1039">37</text>
<circle class="pt" cx="99.01" cy="1012" r="3.2"/>
<text class="lb" x="104.01" y="1048">24</text>
<circle class="pt" cx="100.28" cy="1037.2" r="3.2"/>
<text class="lb" x="84.48" y="1055.2">04</text>
<circle class="pt" cx="100.61" cy="1012" r="3.2"/>
<text class="lb" x="105.61" y="1057">22</text>
<circle class="pt" cx="101.79" cy="1012" r="3.2"/>
<text class="lb" x="120.59" y="1057">10</text>
<circle class="pt" cx="102.15" cy="1051.6" r="3.2"/>
<text class="lb" x="72.55" y="1060.6">16</text>
<circle class="pt" cx="104.9" cy="1012" r="3.2"/>
<text class="lb" x="123.7" y="1021">15</text>
<circle class="pt" cx="105.69" cy="1163.2" r="3.2"/>
<text class="lb" x="110.69" y="1159.2">23</text>
<circle class="pt" cx="105.79" cy="1012" r="3.2"/>
<text class="lb" x="110.79" y="1021">35</text>
<circle class="pt" cx="109.95" cy="1012" r="3.2"/>
<text class="lb" x="128.75" y="1030">02</text>
<circle class="pt" cx="110.52" cy="1012" r="3.2"/>
<text class="lb" x="129.32" y="1039">12</text>
<circle class="pt" cx="112.79" cy="1012" r="3.2"/>
<text class="lb" x="131.59" y="1048">20</text>
<circle class="pt" cx="117.12" cy="1012" r="3.2"/>
<text class="lb" x="135.92" y="1021">29</text>
<circle class="pt" cx="118.28" cy="1012" r="3.2"/>
<text class="lb" x="137.08" y="1057">05</text>
<circle class="pt" cx="119.63" cy="1012" r="3.2"/>
<text class="lb" x="124.63" y="1021">21</text>
<circle class="pt" cx="120.35" cy="1012" r="3.2"/>
<text class="lb" x="125.35" y="1021">27</text>
<circle class="pt" cx="120.75" cy="1012" r="3.2"/>
<text class="lb" x="125.75" y="1021">33</text>
<circle class="pt" cx="122.5" cy="1012" r="3.2"/>
<text class="lb" x="141.3" y="1030">31</text>
<circle class="pt" cx="152.82" cy="1130.8" r="3.2"/>
<text class="lb" x="157.82" y="1126.8">13</text>
<circle class="pt" cx="165.76" cy="1012" r="3.2"/>
<text class="lb" x="170.76" y="1021">09</text>
<circle class="pt" cx="168.41" cy="1163.2" r="3.2"/>
<text class="lb" x="173.41" y="1159.2">17</text>
<circle class="pt" cx="181.91" cy="1012" r="3.2"/>
<text class="lb" x="186.91" y="1021">26</text>
<circle class="pt" cx="184.78" cy="1012" r="3.2"/>
<text class="lb" x="203.58" y="1021">03</text>
<circle class="pt" cx="196.01" cy="1037.2" r="3.2"/>
<text class="lb" x="201.01" y="1033.2">30</text>
<circle class="pt" cx="197.52" cy="1012" r="3.2"/>
<text class="lb" x="216.32" y="1021">28</text>
<circle class="pt" cx="198.67" cy="1076.8" r="3.2"/>
<text class="lb" x="203.67" y="1072.8">08</text>
<circle class="pt" cx="210.24" cy="1012" r="3.2"/>
<text class="lb" x="229.04" y="1021">06</text>
<circle class="pto" cx="222.04" cy="1138" r="3.2"/>
<text class="lbo" x="227.04" y="1134">39</text>
<circle class="pt" cx="223.68" cy="1019.2" r="3.2"/>
<text class="lb" x="242.48" y="1028.2">07</text>
<circle class="pt" cx="284.19" cy="1037.2" r="3.2"/>
<text class="lb" x="289.19" y="1033.2">45</text>
<circle class="pto" cx="357.69" cy="1138" r="3.2"/>
<text class="lbo" x="362.69" y="1134">42</text>
<circle class="pto" cx="671.02" cy="1145.2" r="3.2"/>
<text class="lbo" x="676.02" y="1141.2">43</text>
<circle class="pt" cx="680.51" cy="1130.8" r="3.2"/>
<text class="lb" x="685.51" y="1126.8">46</text>
<circle class="pto" cx="734.9" cy="1012" r="3.2"/>
<text class="lbo" x="739.9" y="1021">41</text>
<circle class="pt" cx="768.03" cy="1184.8" r="3.2"/>
<text class="lb" x="773.03" y="1180.8">44</text>
<text class="ttl" x="58" y="1464">p06_qc_ema_cross  &#8212;  .llm_config.e03_claude_opus_5</text>
<rect x="58" y="1478" width="720" height="360" fill="#fbfbfc" stroke="#e5e7eb"/>
<line class="grid" x1="58" y1="1838" x2="778" y2="1838"/>
<text class="ax" x="50" y="1841" text-anchor="end">0.90</text>
<line class="grid" x1="58" y1="1766" x2="778" y2="1766"/>
<text class="ax" x="50" y="1769" text-anchor="end">0.92</text>
<line class="grid" x1="58" y1="1694" x2="778" y2="1694"/>
<text class="ax" x="50" y="1697" text-anchor="end">0.94</text>
<line class="grid" x1="58" y1="1622" x2="778" y2="1622"/>
<text class="ax" x="50" y="1625" text-anchor="end">0.96</text>
<line class="grid" x1="58" y1="1550" x2="778" y2="1550"/>
<text class="ax" x="50" y="1553" text-anchor="end">0.98</text>
<line class="grid" x1="58" y1="1478" x2="778" y2="1478"/>
<text class="ax" x="50" y="1481" text-anchor="end">1.00</text>
<line class="grid" x1="58" y1="1478" x2="58" y2="1838"/>
<text class="ax" x="58" y="1853" text-anchor="middle">0.0</text>
<line class="grid" x1="298" y1="1478" x2="298" y2="1838"/>
<text class="ax" x="298" y="1853" text-anchor="middle">0.5</text>
<line class="grid" x1="538" y1="1478" x2="538" y2="1838"/>
<text class="ax" x="538" y="1853" text-anchor="middle">1.0</text>
<line class="grid" x1="778" y1="1478" x2="778" y2="1838"/>
<text class="ax" x="778" y="1853" text-anchor="middle">1.5</text>
<line class="axis" x1="58" y1="1838" x2="778" y2="1838"/>
<line class="axis" x1="58" y1="1478" x2="58" y2="1838"/>
<text class="ax" x="418" y="1871" text-anchor="middle">cost (USD)</text>
<text class="ax" x="20" y="1658" text-anchor="middle" transform="rotate(-90 20 1658)">score</text>
<circle class="pt" cx="406.46" cy="1478" r="3.2"/>
<text class="lb" x="411.46" y="1487">29</text>
<circle class="pt" cx="436.69" cy="1478" r="3.2"/>
<text class="lb" x="441.69" y="1487">34</text>
<circle class="pt" cx="451.05" cy="1478" r="3.2"/>
<text class="lb" x="456.05" y="1487">47</text>
<circle class="pt" cx="495.83" cy="1478" r="3.2"/>
<text class="lb" x="500.83" y="1487">29</text>
<circle class="pt" cx="500.68" cy="1478" r="3.2"/>
<text class="lb" x="484.88" y="1487">00</text>
<circle class="pt" cx="536.88" cy="1478" r="3.2"/>
<text class="lb" x="541.88" y="1487">34</text>
<circle class="pt" cx="547.62" cy="1478" r="3.2"/>
<text class="lb" x="566.42" y="1487">47</text>
<text class="ttl" x="58" y="1930">p07_qc_bugfix_refactor  &#8212;  .llm_config.e03_claude_opus_5</text>
<rect x="58" y="1944" width="720" height="360" fill="#fbfbfc" stroke="#e5e7eb"/>
<line class="grid" x1="58" y1="2304" x2="778" y2="2304"/>
<text class="ax" x="50" y="2307" text-anchor="end">0.90</text>
<line class="grid" x1="58" y1="2232" x2="778" y2="2232"/>
<text class="ax" x="50" y="2235" text-anchor="end">0.92</text>
<line class="grid" x1="58" y1="2160" x2="778" y2="2160"/>
<text class="ax" x="50" y="2163" text-anchor="end">0.94</text>
<line class="grid" x1="58" y1="2088" x2="778" y2="2088"/>
<text class="ax" x="50" y="2091" text-anchor="end">0.96</text>
<line class="grid" x1="58" y1="2016" x2="778" y2="2016"/>
<text class="ax" x="50" y="2019" text-anchor="end">0.98</text>
<line class="grid" x1="58" y1="1944" x2="778" y2="1944"/>
<text class="ax" x="50" y="1947" text-anchor="end">1.00</text>
<line class="grid" x1="58" y1="1944" x2="58" y2="2304"/>
<text class="ax" x="58" y="2319" text-anchor="middle">0.0</text>
<line class="grid" x1="298" y1="1944" x2="298" y2="2304"/>
<text class="ax" x="298" y="2319" text-anchor="middle">0.5</text>
<line class="grid" x1="538" y1="1944" x2="538" y2="2304"/>
<text class="ax" x="538" y="2319" text-anchor="middle">1.0</text>
<line class="grid" x1="778" y1="1944" x2="778" y2="2304"/>
<text class="ax" x="778" y="2319" text-anchor="middle">1.5</text>
<line class="axis" x1="58" y1="2304" x2="778" y2="2304"/>
<line class="axis" x1="58" y1="1944" x2="58" y2="2304"/>
<text class="ax" x="418" y="2337" text-anchor="middle">cost (USD)</text>
<text class="ax" x="20" y="2124" text-anchor="middle" transform="rotate(-90 20 2124)">score</text>
<circle class="pt" cx="477.5" cy="1944" r="3.2"/>
<text class="lb" x="482.5" y="1953">00</text>
<circle class="pt" cx="571.35" cy="1944" r="3.2"/>
<text class="lb" x="576.35" y="1953">29</text>
<circle class="pt" cx="632.27" cy="1944" r="3.2"/>
<text class="lb" x="637.27" y="1953">34</text>
<circle class="pt" cx="739.39" cy="1944" r="3.2"/>
<text class="lb" x="744.39" y="1953">47</text>
<text class="ttl" x="58" y="2396">p01_python_small  &#8212;  .llm_config.e06_local_gptoss_20b</text>
<rect x="58" y="2410" width="720" height="360" fill="#fbfbfc" stroke="#e5e7eb"/>
<line class="grid" x1="58" y1="2770" x2="778" y2="2770"/>
<text class="ax" x="50" y="2773" text-anchor="end">0.0</text>
<line class="grid" x1="58" y1="2734" x2="778" y2="2734"/>
<text class="ax" x="50" y="2737" text-anchor="end">0.1</text>
<line class="grid" x1="58" y1="2698" x2="778" y2="2698"/>
<text class="ax" x="50" y="2701" text-anchor="end">0.2</text>
<line class="grid" x1="58" y1="2662" x2="778" y2="2662"/>
<text class="ax" x="50" y="2665" text-anchor="end">0.3</text>
<line class="grid" x1="58" y1="2626" x2="778" y2="2626"/>
<text class="ax" x="50" y="2629" text-anchor="end">0.4</text>
<line class="grid" x1="58" y1="2590" x2="778" y2="2590"/>
<text class="ax" x="50" y="2593" text-anchor="end">0.5</text>
<line class="grid" x1="58" y1="2554" x2="778" y2="2554"/>
<text class="ax" x="50" y="2557" text-anchor="end">0.6</text>
<line class="grid" x1="58" y1="2518" x2="778" y2="2518"/>
<text class="ax" x="50" y="2521" text-anchor="end">0.7</text>
<line class="grid" x1="58" y1="2482" x2="778" y2="2482"/>
<text class="ax" x="50" y="2485" text-anchor="end">0.8</text>
<line class="grid" x1="58" y1="2446" x2="778" y2="2446"/>
<text class="ax" x="50" y="2449" text-anchor="end">0.9</text>
<line class="grid" x1="58" y1="2410" x2="778" y2="2410"/>
<text class="ax" x="50" y="2413" text-anchor="end">1.0</text>
<line class="grid" x1="58" y1="2410" x2="58" y2="2770"/>
<text class="ax" x="58" y="2785" text-anchor="middle">0.0</text>
<line class="grid" x1="778" y1="2410" x2="778" y2="2770"/>
<text class="ax" x="778" y="2785" text-anchor="middle">0.5</text>
<line class="axis" x1="58" y1="2770" x2="778" y2="2770"/>
<line class="axis" x1="58" y1="2410" x2="58" y2="2770"/>
<text class="ax" x="418" y="2803" text-anchor="middle">cost (USD)</text>
<text class="ax" x="20" y="2590" text-anchor="middle" transform="rotate(-90 20 2590)">score</text>
<polyline class="front" points="58,2770 58,2770 58,2689.54 58,2462.2 58,2457.88 58,2454.28 58,2441.32"/>
<circle class="pt" cx="58" cy="2770" r="3.2"/>
<text class="lb" x="63" y="2766">00</text>
<circle class="pt" cx="58" cy="2770" r="3.2"/>
<text class="lb" x="42.2" y="2766">00</text>
<circle class="pt" cx="58" cy="2689.54" r="3.2"/>
<text class="lb" x="63" y="2685.54">00</text>
<circle class="pt" cx="58" cy="2462.2" r="3.2"/>
<text class="lb" x="63" y="2458.2">00</text>
<circle class="pt" cx="58" cy="2457.88" r="3.2"/>
<text class="lb" x="42.2" y="2453.88">00</text>
<circle class="pt" cx="58" cy="2454.28" r="3.2"/>
<text class="lb" x="76.8" y="2450.28">00</text>
<circle class="pt" cx="58" cy="2441.32" r="3.2"/>
<text class="lb" x="63" y="2437.32">00</text>
<text class="ttl" x="58" y="2862">p03_python_large  &#8212;  .llm_config.e06_local_gptoss_20b</text>
<rect x="58" y="2876" width="720" height="360" fill="#fbfbfc" stroke="#e5e7eb"/>
<line class="grid" x1="58" y1="3236" x2="778" y2="3236"/>
<text class="ax" x="50" y="3239" text-anchor="end">0.0</text>
<line class="grid" x1="58" y1="3200" x2="778" y2="3200"/>
<text class="ax" x="50" y="3203" text-anchor="end">0.1</text>
<line class="grid" x1="58" y1="3164" x2="778" y2="3164"/>
<text class="ax" x="50" y="3167" text-anchor="end">0.2</text>
<line class="grid" x1="58" y1="3128" x2="778" y2="3128"/>
<text class="ax" x="50" y="3131" text-anchor="end">0.3</text>
<line class="grid" x1="58" y1="3092" x2="778" y2="3092"/>
<text class="ax" x="50" y="3095" text-anchor="end">0.4</text>
<line class="grid" x1="58" y1="3056" x2="778" y2="3056"/>
<text class="ax" x="50" y="3059" text-anchor="end">0.5</text>
<line class="grid" x1="58" y1="3020" x2="778" y2="3020"/>
<text class="ax" x="50" y="3023" text-anchor="end">0.6</text>
<line class="grid" x1="58" y1="2984" x2="778" y2="2984"/>
<text class="ax" x="50" y="2987" text-anchor="end">0.7</text>
<line class="grid" x1="58" y1="2948" x2="778" y2="2948"/>
<text class="ax" x="50" y="2951" text-anchor="end">0.8</text>
<line class="grid" x1="58" y1="2912" x2="778" y2="2912"/>
<text class="ax" x="50" y="2915" text-anchor="end">0.9</text>
<line class="grid" x1="58" y1="2876" x2="778" y2="2876"/>
<text class="ax" x="50" y="2879" text-anchor="end">1.0</text>
<line class="grid" x1="58" y1="2876" x2="58" y2="3236"/>
<text class="ax" x="58" y="3251" text-anchor="middle">0.0</text>
<line class="grid" x1="778" y1="2876" x2="778" y2="3236"/>
<text class="ax" x="778" y="3251" text-anchor="middle">0.5</text>
<line class="axis" x1="58" y1="3236" x2="778" y2="3236"/>
<line class="axis" x1="58" y1="2876" x2="58" y2="3236"/>
<text class="ax" x="418" y="3269" text-anchor="middle">cost (USD)</text>
<text class="ax" x="20" y="3056" text-anchor="middle" transform="rotate(-90 20 3056)">score</text>
<polyline class="front" points="58,3236 58,3236 58,3236 58,2948"/>
<circle class="pt" cx="58" cy="3236" r="3.2"/>
<text class="lb" x="63" y="3232">00</text>
<circle class="pt" cx="58" cy="3236" r="3.2"/>
<text class="lb" x="42.2" y="3232">00</text>
<circle class="pt" cx="58" cy="3236" r="3.2"/>
<text class="lb" x="76.8" y="3232">00</text>
<circle class="pt" cx="58" cy="2948" r="3.2"/>
<text class="lb" x="63" y="2944">00</text>
<text class="ttl" x="58" y="3328">p01_python_small  &#8212;  .llm_config.e07_local_qwen3_4b</text>
<rect x="58" y="3342" width="720" height="360" fill="#fbfbfc" stroke="#e5e7eb"/>
<line class="grid" x1="58" y1="3702" x2="778" y2="3702"/>
<text class="ax" x="50" y="3705" text-anchor="end">0.0</text>
<line class="grid" x1="58" y1="3666" x2="778" y2="3666"/>
<text class="ax" x="50" y="3669" text-anchor="end">0.1</text>
<line class="grid" x1="58" y1="3630" x2="778" y2="3630"/>
<text class="ax" x="50" y="3633" text-anchor="end">0.2</text>
<line class="grid" x1="58" y1="3594" x2="778" y2="3594"/>
<text class="ax" x="50" y="3597" text-anchor="end">0.3</text>
<line class="grid" x1="58" y1="3558" x2="778" y2="3558"/>
<text class="ax" x="50" y="3561" text-anchor="end">0.4</text>
<line class="grid" x1="58" y1="3522" x2="778" y2="3522"/>
<text class="ax" x="50" y="3525" text-anchor="end">0.5</text>
<line class="grid" x1="58" y1="3486" x2="778" y2="3486"/>
<text class="ax" x="50" y="3489" text-anchor="end">0.6</text>
<line class="grid" x1="58" y1="3450" x2="778" y2="3450"/>
<text class="ax" x="50" y="3453" text-anchor="end">0.7</text>
<line class="grid" x1="58" y1="3414" x2="778" y2="3414"/>
<text class="ax" x="50" y="3417" text-anchor="end">0.8</text>
<line class="grid" x1="58" y1="3378" x2="778" y2="3378"/>
<text class="ax" x="50" y="3381" text-anchor="end">0.9</text>
<line class="grid" x1="58" y1="3342" x2="778" y2="3342"/>
<text class="ax" x="50" y="3345" text-anchor="end">1.0</text>
<line class="grid" x1="58" y1="3342" x2="58" y2="3702"/>
<text class="ax" x="58" y="3717" text-anchor="middle">0.0</text>
<line class="grid" x1="778" y1="3342" x2="778" y2="3702"/>
<text class="ax" x="778" y="3717" text-anchor="middle">0.5</text>
<line class="axis" x1="58" y1="3702" x2="778" y2="3702"/>
<line class="axis" x1="58" y1="3342" x2="58" y2="3702"/>
<text class="ax" x="418" y="3735" text-anchor="middle">cost (USD)</text>
<text class="ax" x="20" y="3522" text-anchor="middle" transform="rotate(-90 20 3522)">score</text>
<polyline class="front" points="58,3702 58,3393.84 58,3380.52 58,3358.92"/>
<circle class="pt" cx="58" cy="3702" r="3.2"/>
<text class="lb" x="63" y="3698">00</text>
<circle class="pt" cx="58" cy="3393.84" r="3.2"/>
<text class="lb" x="63" y="3389.84">00</text>
<circle class="pt" cx="58" cy="3380.52" r="3.2"/>
<text class="lb" x="63" y="3376.52">00</text>
<circle class="pt" cx="58" cy="3358.92" r="3.2"/>
<text class="lb" x="63" y="3354.92">00</text>
<text class="ttl" x="58" y="3794">p03_python_large  &#8212;  .llm_config.e07_local_qwen3_4b</text>
<rect x="58" y="3808" width="720" height="360" fill="#fbfbfc" stroke="#e5e7eb"/>
<line class="grid" x1="58" y1="4168" x2="778" y2="4168"/>
<text class="ax" x="50" y="4171" text-anchor="end">0.0</text>
<line class="grid" x1="58" y1="4132" x2="778" y2="4132"/>
<text class="ax" x="50" y="4135" text-anchor="end">0.1</text>
<line class="grid" x1="58" y1="4096" x2="778" y2="4096"/>
<text class="ax" x="50" y="4099" text-anchor="end">0.2</text>
<line class="grid" x1="58" y1="4060" x2="778" y2="4060"/>
<text class="ax" x="50" y="4063" text-anchor="end">0.3</text>
<line class="grid" x1="58" y1="4024" x2="778" y2="4024"/>
<text class="ax" x="50" y="4027" text-anchor="end">0.4</text>
<line class="grid" x1="58" y1="3988" x2="778" y2="3988"/>
<text class="ax" x="50" y="3991" text-anchor="end">0.5</text>
<line class="grid" x1="58" y1="3952" x2="778" y2="3952"/>
<text class="ax" x="50" y="3955" text-anchor="end">0.6</text>
<line class="grid" x1="58" y1="3916" x2="778" y2="3916"/>
<text class="ax" x="50" y="3919" text-anchor="end">0.7</text>
<line class="grid" x1="58" y1="3880" x2="778" y2="3880"/>
<text class="ax" x="50" y="3883" text-anchor="end">0.8</text>
<line class="grid" x1="58" y1="3844" x2="778" y2="3844"/>
<text class="ax" x="50" y="3847" text-anchor="end">0.9</text>
<line class="grid" x1="58" y1="3808" x2="778" y2="3808"/>
<text class="ax" x="50" y="3811" text-anchor="end">1.0</text>
<line class="grid" x1="58" y1="3808" x2="58" y2="4168"/>
<text class="ax" x="58" y="4183" text-anchor="middle">0.0</text>
<line class="grid" x1="778" y1="3808" x2="778" y2="4168"/>
<text class="ax" x="778" y="4183" text-anchor="middle">0.5</text>
<line class="axis" x1="58" y1="4168" x2="778" y2="4168"/>
<line class="axis" x1="58" y1="3808" x2="58" y2="4168"/>
<text class="ax" x="418" y="4201" text-anchor="middle">cost (USD)</text>
<text class="ax" x="20" y="3988" text-anchor="middle" transform="rotate(-90 20 3988)">score</text>
<polyline class="front" points="58,4168 58,4168"/>
<circle class="pt" cx="58" cy="4168" r="3.2"/>
<text class="lb" x="63" y="4164">00</text>
<circle class="pt" cx="58" cy="4168" r="3.2"/>
<text class="lb" x="42.2" y="4164">00</text>
</svg>
